<mxfile host="65bd71144e">
    <diagram name="Page-1" id="X6Q0eUXd8FNKNGAS-vkh">
        <mxGraphModel dx="730" dy="1575" grid="1" gridSize="10" guides="1" tooltips="1" connect="1" arrows="1" fold="1" page="1" pageScale="1" pageWidth="850" pageHeight="1100" math="0" shadow="0">
            <root>
                <mxCell id="0"/>
                <mxCell id="1" parent="0"/>
                <mxCell id="MPvX9LyE8eq6sSWWMgXI-24" value="" style="whiteSpace=wrap;html=1;shadow=1;" parent="1" vertex="1">
                    <mxGeometry x="70" y="-440" width="210" height="980" as="geometry"/>
                </mxCell>
                <mxCell id="MPvX9LyE8eq6sSWWMgXI-26" value="" style="whiteSpace=wrap;html=1;" parent="1" vertex="1">
                    <mxGeometry x="280" y="-440" width="280" height="980" as="geometry"/>
                </mxCell>
                <mxCell id="MPvX9LyE8eq6sSWWMgXI-28" value="PATIENT" style="whiteSpace=wrap;html=1;fontFamily=Times New Roman;" parent="1" vertex="1">
                    <mxGeometry x="70" y="-490" width="210" height="40" as="geometry"/>
                </mxCell>
                <mxCell id="MPvX9LyE8eq6sSWWMgXI-29" value="SYSTEM" style="whiteSpace=wrap;html=1;fontFamily=Times New Roman;" parent="1" vertex="1">
                    <mxGeometry x="285" y="-490" width="270" height="40" as="geometry"/>
                </mxCell>
                <mxCell id="MPvX9LyE8eq6sSWWMgXI-39" value="" style="ellipse;html=1;shape=startState;fillColor=#000000;strokeColor=#ff0000;" parent="1" vertex="1">
                    <mxGeometry x="150" y="-440" width="30" height="30" as="geometry"/>
                </mxCell>
                <mxCell id="MPvX9LyE8eq6sSWWMgXI-40" value="" style="edgeStyle=orthogonalEdgeStyle;html=1;verticalAlign=bottom;endArrow=open;endSize=8;strokeColor=#ff0000;rounded=0;" parent="1" source="MPvX9LyE8eq6sSWWMgXI-39" edge="1">
                    <mxGeometry relative="1" as="geometry">
                        <mxPoint x="165" y="-350" as="targetPoint"/>
                    </mxGeometry>
                </mxCell>
                <mxCell id="MPvX9LyE8eq6sSWWMgXI-51" value="" style="edgeStyle=orthogonalEdgeStyle;rounded=0;orthogonalLoop=1;jettySize=auto;html=1;" parent="1" source="MPvX9LyE8eq6sSWWMgXI-41" target="MPvX9LyE8eq6sSWWMgXI-50" edge="1">
                    <mxGeometry relative="1" as="geometry"/>
                </mxCell>
                <mxCell id="MPvX9LyE8eq6sSWWMgXI-41" value="wait in line for a card." style="rounded=1;whiteSpace=wrap;html=1;arcSize=40;fontColor=#000000;fillColor=#ffffc0;strokeColor=#ff0000;fontFamily=Times New Roman;" parent="1" vertex="1">
                    <mxGeometry x="115" y="-350" width="120" height="40" as="geometry"/>
                </mxCell>
                <mxCell id="MPvX9LyE8eq6sSWWMgXI-42" value="" style="edgeStyle=orthogonalEdgeStyle;html=1;verticalAlign=bottom;endArrow=open;endSize=8;strokeColor=#ff0000;rounded=0;" parent="1" source="MPvX9LyE8eq6sSWWMgXI-41" edge="1">
                    <mxGeometry relative="1" as="geometry">
                        <mxPoint x="175" y="-250" as="targetPoint"/>
                    </mxGeometry>
                </mxCell>
                <mxCell id="MPvX9LyE8eq6sSWWMgXI-100" style="edgeStyle=orthogonalEdgeStyle;rounded=0;orthogonalLoop=1;jettySize=auto;html=1;entryX=0;entryY=0.5;entryDx=0;entryDy=0;" parent="1" source="MPvX9LyE8eq6sSWWMgXI-43" target="MPvX9LyE8eq6sSWWMgXI-63" edge="1">
                    <mxGeometry relative="1" as="geometry"/>
                </mxCell>
                <mxCell id="MPvX9LyE8eq6sSWWMgXI-43" value="Enter patient information" style="rounded=1;whiteSpace=wrap;html=1;arcSize=40;fontColor=#000000;fillColor=#ffffc0;strokeColor=#ff0000;" parent="1" vertex="1">
                    <mxGeometry x="115" y="-250" width="120" height="40" as="geometry"/>
                </mxCell>
                <mxCell id="MPvX9LyE8eq6sSWWMgXI-50" value="Display list of services and doctors available" style="whiteSpace=wrap;html=1;fontFamily=Times New Roman;fillColor=#ffffc0;strokeColor=#ff0000;fontColor=#000000;rounded=1;arcSize=40;" parent="1" vertex="1">
                    <mxGeometry x="360" y="-350" width="120" height="50" as="geometry"/>
                </mxCell>
                <mxCell id="MPvX9LyE8eq6sSWWMgXI-80" value="" style="edgeStyle=orthogonalEdgeStyle;rounded=0;orthogonalLoop=1;jettySize=auto;html=1;" parent="1" source="MPvX9LyE8eq6sSWWMgXI-63" target="MPvX9LyE8eq6sSWWMgXI-79" edge="1">
                    <mxGeometry relative="1" as="geometry"/>
                </mxCell>
                <mxCell id="MPvX9LyE8eq6sSWWMgXI-84" style="edgeStyle=orthogonalEdgeStyle;rounded=0;orthogonalLoop=1;jettySize=auto;html=1;" parent="1" source="MPvX9LyE8eq6sSWWMgXI-63" target="MPvX9LyE8eq6sSWWMgXI-79" edge="1">
                    <mxGeometry relative="1" as="geometry"/>
                </mxCell>
                <mxCell id="MPvX9LyE8eq6sSWWMgXI-134" style="edgeStyle=orthogonalEdgeStyle;rounded=0;orthogonalLoop=1;jettySize=auto;html=1;" parent="1" source="MPvX9LyE8eq6sSWWMgXI-63" target="MPvX9LyE8eq6sSWWMgXI-130" edge="1">
                    <mxGeometry relative="1" as="geometry"/>
                </mxCell>
                <mxCell id="MPvX9LyE8eq6sSWWMgXI-63" value="Calculate and display payment information" style="whiteSpace=wrap;html=1;fillColor=#ffffc0;strokeColor=#ff0000;fontColor=#000000;rounded=1;arcSize=40;" parent="1" vertex="1">
                    <mxGeometry x="370" y="-250" width="120" height="60" as="geometry"/>
                </mxCell>
                <mxCell id="MPvX9LyE8eq6sSWWMgXI-66" value="" style="whiteSpace=wrap;html=1;" parent="1" vertex="1">
                    <mxGeometry x="560" y="-440" width="250" height="980" as="geometry"/>
                </mxCell>
                <mxCell id="MPvX9LyE8eq6sSWWMgXI-67" value="HOSPITAL ADMIN" style="whiteSpace=wrap;html=1;" parent="1" vertex="1">
                    <mxGeometry x="570" y="-490" width="200" height="40" as="geometry"/>
                </mxCell>
                <mxCell id="MPvX9LyE8eq6sSWWMgXI-73" style="edgeStyle=orthogonalEdgeStyle;rounded=0;orthogonalLoop=1;jettySize=auto;html=1;entryX=0.417;entryY=0.167;entryDx=0;entryDy=0;entryPerimeter=0;" parent="1" source="MPvX9LyE8eq6sSWWMgXI-50" target="MPvX9LyE8eq6sSWWMgXI-63" edge="1">
                    <mxGeometry relative="1" as="geometry"/>
                </mxCell>
                <mxCell id="MPvX9LyE8eq6sSWWMgXI-77" style="edgeStyle=orthogonalEdgeStyle;rounded=0;orthogonalLoop=1;jettySize=auto;html=1;entryX=1;entryY=0.5;entryDx=0;entryDy=0;" parent="1" source="MPvX9LyE8eq6sSWWMgXI-74" target="MPvX9LyE8eq6sSWWMgXI-63" edge="1">
                    <mxGeometry relative="1" as="geometry"/>
                </mxCell>
                <mxCell id="MPvX9LyE8eq6sSWWMgXI-74" value="admission cost" style="rounded=1;whiteSpace=wrap;html=1;arcSize=40;fontColor=#000000;fillColor=#ffffc0;strokeColor=#ff0000;" parent="1" vertex="1">
                    <mxGeometry x="640" y="-320" width="120" height="40" as="geometry"/>
                </mxCell>
                <mxCell id="MPvX9LyE8eq6sSWWMgXI-79" value="confirm and approve the cost" style="whiteSpace=wrap;html=1;fillColor=#ffffc0;strokeColor=#ff0000;fontColor=#000000;rounded=1;arcSize=40;" parent="1" vertex="1">
                    <mxGeometry x="640" y="-127" width="120" height="60" as="geometry"/>
                </mxCell>
                <mxCell id="MPvX9LyE8eq6sSWWMgXI-86" value="take token and wait for your turn" style="rounded=1;whiteSpace=wrap;html=1;arcSize=40;fontColor=#000000;fillColor=#ffffc0;strokeColor=#ff0000;" parent="1" vertex="1">
                    <mxGeometry x="115" y="-150" width="120" height="40" as="geometry"/>
                </mxCell>
                <mxCell id="MPvX9LyE8eq6sSWWMgXI-93" style="edgeStyle=orthogonalEdgeStyle;rounded=0;orthogonalLoop=1;jettySize=auto;html=1;entryX=1;entryY=0.5;entryDx=0;entryDy=0;" parent="1" source="MPvX9LyE8eq6sSWWMgXI-91" target="MPvX9LyE8eq6sSWWMgXI-86" edge="1">
                    <mxGeometry relative="1" as="geometry"/>
                </mxCell>
                <mxCell id="MPvX9LyE8eq6sSWWMgXI-97" value="" style="edgeStyle=orthogonalEdgeStyle;rounded=0;orthogonalLoop=1;jettySize=auto;html=1;" parent="1" source="MPvX9LyE8eq6sSWWMgXI-91" target="MPvX9LyE8eq6sSWWMgXI-96" edge="1">
                    <mxGeometry relative="1" as="geometry">
                        <Array as="points">
                            <mxPoint x="430" y="-30"/>
                            <mxPoint x="700" y="-30"/>
                        </Array>
                    </mxGeometry>
                </mxCell>
                <mxCell id="MPvX9LyE8eq6sSWWMgXI-91" value="payment" style="rhombus;whiteSpace=wrap;html=1;fillColor=#ffffc0;strokeColor=#ff0000;fontColor=#000000;rounded=1;arcSize=40;" parent="1" vertex="1">
                    <mxGeometry x="385" y="-70" width="80" height="80" as="geometry"/>
                </mxCell>
                <mxCell id="MPvX9LyE8eq6sSWWMgXI-96" value="Decline the treatment" style="whiteSpace=wrap;html=1;fillColor=#ffffc0;strokeColor=#ff0000;fontColor=#000000;rounded=1;arcSize=40;" parent="1" vertex="1">
                    <mxGeometry x="640" y="40" width="120" height="60" as="geometry"/>
                </mxCell>
                <mxCell id="MPvX9LyE8eq6sSWWMgXI-98" value="payment failed" style="text;align=center;fontStyle=1;verticalAlign=middle;spacingLeft=3;spacingRight=3;strokeColor=none;rotatable=0;points=[[0,0.5],[1,0.5]];portConstraint=eastwest;html=1;" parent="1" vertex="1">
                    <mxGeometry x="520" y="-110" width="80" height="26" as="geometry"/>
                </mxCell>
                <mxCell id="MPvX9LyE8eq6sSWWMgXI-99" value="payment successful" style="text;align=center;fontStyle=1;verticalAlign=middle;spacingLeft=3;spacingRight=3;strokeColor=none;rotatable=0;points=[[0,0.5],[1,0.5]];portConstraint=eastwest;html=1;" parent="1" vertex="1">
                    <mxGeometry x="280" y="-153" width="80" height="26" as="geometry"/>
                </mxCell>
                <mxCell id="MPvX9LyE8eq6sSWWMgXI-105" value="Save the updated transactions&amp;nbsp;" style="rounded=1;whiteSpace=wrap;html=1;arcSize=40;fontColor=#000000;fillColor=#ffffc0;strokeColor=#ff0000;" parent="1" vertex="1">
                    <mxGeometry x="360" y="50" width="120" height="40" as="geometry"/>
                </mxCell>
                <mxCell id="MPvX9LyE8eq6sSWWMgXI-115" value="" style="edgeStyle=orthogonalEdgeStyle;rounded=0;orthogonalLoop=1;jettySize=auto;html=1;" parent="1" source="MPvX9LyE8eq6sSWWMgXI-107" target="MPvX9LyE8eq6sSWWMgXI-114" edge="1">
                    <mxGeometry relative="1" as="geometry"/>
                </mxCell>
                <mxCell id="MPvX9LyE8eq6sSWWMgXI-107" value="" style="shape=line;html=1;strokeWidth=6;strokeColor=#ff0000;" parent="1" vertex="1">
                    <mxGeometry x="225" y="230" width="200" height="10" as="geometry"/>
                </mxCell>
                <mxCell id="MPvX9LyE8eq6sSWWMgXI-109" style="edgeStyle=orthogonalEdgeStyle;rounded=0;orthogonalLoop=1;jettySize=auto;html=1;entryX=0.25;entryY=0.5;entryDx=0;entryDy=0;entryPerimeter=0;" parent="1" source="MPvX9LyE8eq6sSWWMgXI-86" target="MPvX9LyE8eq6sSWWMgXI-107" edge="1">
                    <mxGeometry relative="1" as="geometry"/>
                </mxCell>
                <mxCell id="MPvX9LyE8eq6sSWWMgXI-110" style="edgeStyle=orthogonalEdgeStyle;rounded=0;orthogonalLoop=1;jettySize=auto;html=1;entryX=0.62;entryY=0.5;entryDx=0;entryDy=0;entryPerimeter=0;" parent="1" source="MPvX9LyE8eq6sSWWMgXI-105" target="MPvX9LyE8eq6sSWWMgXI-107" edge="1">
                    <mxGeometry relative="1" as="geometry"/>
                </mxCell>
                <mxCell id="MPvX9LyE8eq6sSWWMgXI-118" style="edgeStyle=orthogonalEdgeStyle;rounded=0;orthogonalLoop=1;jettySize=auto;html=1;" parent="1" source="MPvX9LyE8eq6sSWWMgXI-114" target="MPvX9LyE8eq6sSWWMgXI-117" edge="1">
                    <mxGeometry relative="1" as="geometry"/>
                </mxCell>
                <mxCell id="MPvX9LyE8eq6sSWWMgXI-122" value="" style="edgeStyle=orthogonalEdgeStyle;rounded=0;orthogonalLoop=1;jettySize=auto;html=1;" parent="1" source="MPvX9LyE8eq6sSWWMgXI-114" edge="1">
                    <mxGeometry relative="1" as="geometry">
                        <mxPoint x="640" y="330" as="targetPoint"/>
                    </mxGeometry>
                </mxCell>
                <mxCell id="MPvX9LyE8eq6sSWWMgXI-114" value="treatment" style="rhombus;whiteSpace=wrap;html=1;strokeColor=#ff0000;strokeWidth=6;" parent="1" vertex="1">
                    <mxGeometry x="290" y="290" width="80" height="80" as="geometry"/>
                </mxCell>
                <mxCell id="MPvX9LyE8eq6sSWWMgXI-117" value="" style="ellipse;html=1;shape=endState;fillColor=#000000;strokeColor=#ff0000;" parent="1" vertex="1">
                    <mxGeometry x="150" y="470" width="30" height="30" as="geometry"/>
                </mxCell>
                <mxCell id="MPvX9LyE8eq6sSWWMgXI-119" value="treatment is done" style="text;align=center;fontStyle=1;verticalAlign=middle;spacingLeft=3;spacingRight=3;strokeColor=none;rotatable=0;points=[[0,0.5],[1,0.5]];portConstraint=eastwest;html=1;" parent="1" vertex="1">
                    <mxGeometry x="150" y="290" width="80" height="26" as="geometry"/>
                </mxCell>
                <mxCell id="MPvX9LyE8eq6sSWWMgXI-127" style="edgeStyle=orthogonalEdgeStyle;rounded=0;orthogonalLoop=1;jettySize=auto;html=1;entryX=0.5;entryY=1;entryDx=0;entryDy=0;" parent="1" source="MPvX9LyE8eq6sSWWMgXI-123" target="MPvX9LyE8eq6sSWWMgXI-117" edge="1">
                    <mxGeometry relative="1" as="geometry"/>
                </mxCell>
                <mxCell id="MPvX9LyE8eq6sSWWMgXI-123" value="refund the patient" style="rounded=1;whiteSpace=wrap;html=1;arcSize=40;fontColor=#000000;fillColor=#ffffc0;strokeColor=#ff0000;" parent="1" vertex="1">
                    <mxGeometry x="640" y="310" width="120" height="40" as="geometry"/>
                </mxCell>
                <mxCell id="MPvX9LyE8eq6sSWWMgXI-125" value="if not possible" style="text;align=center;fontStyle=1;verticalAlign=middle;spacingLeft=3;spacingRight=3;strokeColor=none;rotatable=0;points=[[0,0.5],[1,0.5]];portConstraint=eastwest;html=1;" parent="1" vertex="1">
                    <mxGeometry x="440" y="300" width="80" height="26" as="geometry"/>
                </mxCell>
                <mxCell id="MPvX9LyE8eq6sSWWMgXI-135" style="edgeStyle=orthogonalEdgeStyle;rounded=0;orthogonalLoop=1;jettySize=auto;html=1;" parent="1" source="MPvX9LyE8eq6sSWWMgXI-130" target="MPvX9LyE8eq6sSWWMgXI-91" edge="1">
                    <mxGeometry relative="1" as="geometry"/>
                </mxCell>
                <mxCell id="MPvX9LyE8eq6sSWWMgXI-136" style="edgeStyle=orthogonalEdgeStyle;rounded=0;orthogonalLoop=1;jettySize=auto;html=1;" parent="1" source="MPvX9LyE8eq6sSWWMgXI-130" target="MPvX9LyE8eq6sSWWMgXI-79" edge="1">
                    <mxGeometry relative="1" as="geometry"/>
                </mxCell>
                <mxCell id="MPvX9LyE8eq6sSWWMgXI-130" value="" style="shape=line;html=1;strokeWidth=6;strokeColor=#ff0000;" parent="1" vertex="1">
                    <mxGeometry x="400" y="-153" width="200" height="10" as="geometry"/>
                </mxCell>
            </root>
        </mxGraphModel>
    </diagram>
</mxfile>